<svg width="342" height="105" viewBox="0 0 342 105" fill="none" xmlns="http://www.w3.org/2000/svg">
<g clip-path="url(#clip0_7_21)">
<path d="M139.481 14.427C142.239 14.427 144.654 14.618 146.723 15C148.791 15.382 150.522 16.1992 151.917 17.4461C153.312 18.693 154.006 20.5129 154.006 22.8953C154.006 27.294 152.07 30.2653 148.201 31.8146C144.333 33.3587 139.991 34.1334 135.176 34.1334C130.36 34.1334 125.955 33.3481 121.877 31.7722C117.793 30.1963 115.756 27.1984 115.756 22.768L126.524 22.7255C126.524 24.6834 127.403 25.925 129.16 26.4503C130.918 26.9756 132.981 27.2356 135.344 27.2356C137.565 27.2356 139.476 26.9119 141.065 26.254C142.654 25.6013 143.449 24.5348 143.449 23.0598V23.0173C143.449 22.1949 142.954 21.5847 141.97 21.1868C140.986 20.7888 139.928 20.5501 138.802 20.4652C137.676 20.3803 136.323 20.3219 134.75 20.2954H131.581C128.539 20.2954 125.903 20.1044 123.666 19.7223C121.429 19.3403 119.55 18.4966 118.03 17.1914C116.509 15.8861 115.751 13.9547 115.751 11.4026C115.751 6.97737 117.73 4.09091 121.682 2.7432C125.634 1.39548 130.134 0.721619 135.171 0.721619C139.897 0.721619 144.217 1.5016 148.133 3.06155C152.043 4.62151 154.001 7.63 154.001 12.087H143.402C143.402 10.6703 142.607 9.60913 141.018 8.91405C139.428 8.21897 137.492 7.82632 135.213 7.74143C132.765 7.74143 130.697 8.02264 129.008 8.59038C127.318 9.15812 126.476 10.0495 126.476 11.2699C126.476 12.4903 127.334 13.3976 129.05 13.8221C130.766 14.2466 132.708 14.4588 134.876 14.4588L139.476 14.4163L139.481 14.427Z" fill="black"/>
<path d="M187.778 22.0888C187.72 24.1051 187.22 26.0205 186.278 27.8352C185.336 29.6498 184.02 31.1196 182.331 32.2391C180.641 33.3587 178.726 33.9211 176.589 33.9211C171.721 33.9211 168.09 32.8122 165.695 30.5996V41.2381H155.985V9.95403H164.895L165.442 12.936C167.805 10.4952 171.521 9.33323 176.589 9.44466C178.757 9.44466 180.678 9.98587 182.352 11.063C184.025 12.1401 185.341 13.6152 186.299 15.4882C187.257 17.3612 187.746 19.4623 187.778 21.7864V22.0835V22.0888ZM176.315 26.2805C177.4 25.0442 177.968 23.5798 178.026 21.8766C177.968 19.9187 177.415 18.3109 176.358 17.0428C175.3 15.78 173.763 15.1486 171.737 15.1486C170.584 15.1486 169.547 15.4404 168.632 16.0188C167.716 16.6024 167 17.3824 166.479 18.3587C165.958 19.3403 165.7 20.3803 165.7 21.4892V21.5741C165.7 23.5586 166.258 25.1504 167.369 26.3389C168.479 27.5327 169.937 28.127 171.737 28.127C173.705 28.127 175.231 27.5115 176.315 26.2752V26.2805Z" fill="black"/>
<path d="M213.871 10.596C216.318 11.6732 218.234 13.1694 219.613 15.0849C220.992 17.0004 221.681 19.1493 221.681 21.5317C221.681 23.9141 220.986 26.0205 219.592 27.936C218.197 29.8514 216.287 31.3477 213.85 32.4248C211.413 33.502 208.677 34.0432 205.64 34.0432C202.603 34.0432 199.967 33.4966 197.409 32.4036C194.846 31.3106 192.799 29.809 191.267 27.8935C189.73 25.9781 188.967 23.8557 188.967 21.5317C188.967 19.2076 189.736 17.0428 191.267 15.1274C192.799 13.2119 194.841 11.7103 197.388 10.6173C199.935 9.52424 202.687 8.97772 205.64 8.97772C208.592 8.97772 211.424 9.51893 213.871 10.596ZM208.782 27.2409C209.755 26.7581 210.534 26.0258 211.124 25.0495C211.713 24.0679 212.008 22.9006 212.008 21.537C212.008 20.1733 211.713 19.006 211.124 18.0244C210.534 17.0428 209.75 16.3159 208.782 15.833C207.813 15.3502 206.761 15.1114 205.635 15.1114C204.508 15.1114 203.461 15.3608 202.403 15.8543C201.345 16.353 200.482 17.0799 199.809 18.0456C199.135 19.0113 198.798 20.1733 198.798 21.537C198.798 22.9006 199.135 24.0626 199.809 25.0283C200.482 25.994 201.351 26.7262 202.403 27.2197C203.461 27.7184 204.535 27.9625 205.635 27.9625C206.735 27.9625 207.808 27.7237 208.782 27.2409Z" fill="black"/>
<path d="M232.87 14.0025C235.122 11.5034 238.68 10.0018 243.553 9.4924V16.8995H237.938C236.191 16.8995 234.928 17.5575 234.138 18.8787C233.349 20.1999 232.954 21.9243 232.954 24.052V33.1624H223.244V9.95402H232.07L232.87 13.9972V14.0025Z" fill="black"/>
<path d="M259.637 9.95403H264.026V16.6343H259.637V33.1465H249.927V16.6343H245.327V9.95403H249.927V4.92927L259.637 0.971008V9.95403Z" fill="black"/>
<path d="M275.762 8.081H266.052V1.65546H275.762V8.081ZM275.762 9.31729H266.052V33.1517H275.762V9.31729Z" fill="black"/>
<path d="M294.461 24.7683L301.087 9.95401H311.554L299.818 33.1517H289.051L277.357 9.95401H287.824L294.45 24.7683H294.461Z" fill="black"/>
<path d="M341.916 22.5133H319.412C319.607 24.3014 320.275 25.7711 321.417 26.9172C322.559 28.0686 324.112 28.6417 326.08 28.6417C327.685 28.6417 329.111 28.2543 330.364 27.469C331.616 26.6891 332.243 25.4899 332.243 23.8716H341.91C341.91 27.1613 340.511 29.6763 337.711 31.4061C334.911 33.1358 331.022 34.0007 326.038 34.0007C322.97 34.0007 320.186 33.4754 317.68 32.4248C315.175 31.3742 313.191 29.8939 311.728 27.9784C310.265 26.063 309.534 23.8716 309.534 21.4043C309.534 18.937 310.26 16.7032 311.707 14.7878C313.154 12.8723 315.138 11.3972 317.659 10.3626C320.18 9.32791 322.97 8.80792 326.038 8.80792C329.106 8.80792 331.953 9.3173 334.332 10.3413C336.711 11.3654 338.558 12.8033 339.884 14.6604C341.205 16.5175 341.884 18.6983 341.91 21.1921V21.4043V22.5133H341.916ZM321.78 15.191C320.796 15.9869 320.117 17.0906 319.754 18.5126H331.995C331.685 17.0959 331.069 15.9869 330.138 15.191C329.206 14.3951 327.843 13.9972 326.043 13.9972C324.243 13.9972 322.764 14.3951 321.78 15.191Z" fill="black"/>
<path d="M154.848 70.2034C156.059 71.3813 156.664 73.0633 156.664 75.2494V75.4192C156.664 78.624 155.348 80.8896 152.717 82.2055C150.086 83.5267 146.307 84.2006 141.381 84.2271H116.598V52.7308H143.323C146.586 52.7573 149.191 53.4418 151.133 54.7736C153.075 56.1054 154.048 57.9943 154.048 60.4351V60.6049C154.048 62.4514 153.67 63.953 152.906 65.115C152.149 66.277 151.007 67.1418 149.486 67.7096C151.849 68.1924 153.638 69.0202 154.848 70.1981V70.2034ZM141.528 64.9664C142.191 64.8974 142.754 64.648 143.218 64.2236C143.681 63.7991 143.912 63.0881 143.912 62.0959C143.912 61.1885 143.686 60.5359 143.239 60.1379C142.786 59.74 142.212 59.4906 141.507 59.3951C140.802 59.2943 139.776 59.2465 138.423 59.2465H126.35V65.0354C129.25 65.0354 131.166 65.0513 132.092 65.0778H138.423C139.828 65.0778 140.865 65.0407 141.528 64.9717V64.9664ZM143.365 76.9685C144.154 76.8677 144.786 76.5865 145.265 76.1196C145.744 75.6526 145.981 74.9045 145.981 73.8857C145.981 72.867 145.738 72.1772 145.265 71.7368C144.786 71.2964 144.154 71.0258 143.365 70.9303C142.575 70.8295 141.397 70.7817 139.818 70.7817H126.35V77.0799C130.318 77.0799 133.139 77.0852 134.813 77.1012C136.486 77.1171 137.634 77.1224 138.255 77.1224H139.818C141.391 77.1224 142.575 77.0746 143.365 76.9738V76.9685Z" fill="black"/>
<path d="M179.336 61.0347H189.046V84.2324H179.336V81.3353C177.194 83.7761 173.947 84.9965 169.584 84.9965C166.121 84.9965 163.443 83.8769 161.543 81.6325C159.643 79.3934 158.69 75.7163 158.69 70.6067V61.0294H168.4V70.4793C168.4 72.2674 168.5 73.7266 168.695 74.862C168.89 75.9975 169.368 76.9473 170.132 77.7167C170.889 78.4807 172.074 78.8681 173.679 78.8681C175.9 78.8681 177.4 78.0934 178.173 76.5493C178.947 75.0053 179.336 72.9837 179.336 70.4846V61.0347Z" fill="black"/>
<path d="M212.855 52.7308H222.565V84.1422H213.697L213.192 81.3778C210.798 83.7071 207.056 84.8108 201.961 84.6993C199.793 84.6993 197.872 84.1528 196.198 83.0598C194.525 81.9667 193.209 80.4758 192.251 78.5921C191.293 76.7032 190.799 74.5967 190.772 72.2727V72.018C190.83 70.0018 191.32 68.0863 192.251 66.2717C193.178 64.457 194.488 62.9873 196.177 61.8677C197.867 60.7481 199.793 60.1857 201.961 60.1857C206.829 60.1857 210.461 61.2947 212.855 63.5072V52.7361V52.7308ZM209.919 78.0775C210.834 77.4938 211.55 76.7244 212.071 75.7588C212.592 74.7931 212.85 73.7584 212.85 72.6494V72.5221C212.85 70.5377 212.292 68.9459 211.182 67.7573C210.071 66.5635 208.629 65.9692 206.856 65.9692C204.856 65.9692 203.314 66.5847 202.235 67.821C201.151 69.0573 200.593 70.5217 200.567 72.225C200.593 74.1829 201.146 75.7959 202.214 77.0534C203.282 78.3162 204.829 78.9476 206.856 78.9476C207.982 78.9476 209.003 78.6558 209.919 78.0775Z" fill="black"/>
<path d="M246.379 52.7308H256.089V84.1422H247.222L246.716 81.3778C244.322 83.7071 240.58 84.8108 235.485 84.6993C233.317 84.6993 231.396 84.1528 229.723 83.0598C228.049 81.9667 226.733 80.4758 225.775 78.5921C224.818 76.7032 224.323 74.5967 224.297 72.2727V72.018C224.355 70.0018 224.844 68.0863 225.775 66.2717C226.702 64.457 228.012 62.9873 229.702 61.8677C231.391 60.7481 233.317 60.1857 235.485 60.1857C240.354 60.1857 243.985 61.2947 246.379 63.5072V52.7361V52.7308ZM243.443 78.0775C244.359 77.4938 245.074 76.7244 245.595 75.7588C246.116 74.7931 246.374 73.7584 246.374 72.6494V72.5221C246.374 70.5377 245.816 68.9459 244.706 67.7573C243.595 66.5635 242.153 65.9692 240.38 65.9692C238.38 65.9692 236.838 66.5847 235.759 67.821C234.675 69.0573 234.117 70.5217 234.091 72.225C234.117 74.1829 234.67 75.7959 235.738 77.0534C236.806 78.3162 238.354 78.9476 240.38 78.9476C241.506 78.9476 242.527 78.6558 243.443 78.0775Z" fill="black"/>
<path d="M293.829 61.0347L279.646 89.4694C278.714 91.3424 276.925 92.5469 274.262 93.0881C271.604 93.6293 268.61 93.8946 265.289 93.8946V86.1054C266.894 86.1054 268.005 86.0046 268.626 85.8083C269.247 85.612 269.552 85.3254 269.552 84.9593C269.552 84.8479 269.494 84.6463 269.383 84.3651L257.521 61.04H267.905L275.757 78.1942L283.44 61.04H293.824L293.829 61.0347Z" fill="black"/>
<path d="M63.3171 14.411C66.4801 14.411 68.7326 17.0004 68.3431 20.1892L65.8801 40.4156C65.4907 43.6045 62.6119 46.1938 59.4437 46.1938H52.9914C49.8285 46.1938 47.576 43.6045 47.9654 40.4156L48.2286 38.2508C48.618 35.0619 46.3655 32.4726 43.2026 32.4726H36.4135C32.7769 32.4726 29.7139 35.2052 29.2719 38.8451L27.9035 50.0778C27.4667 53.6806 28.9508 57.018 31.8138 58.838L59.7647 76.6714L18.0199 99.7206C16.2621 100.692 14.4622 101.137 12.7623 101.137C7.49951 101.137 3.18399 96.8978 3.905 90.9604L8.35736 54.4181L11.0309 32.4461L11.9887 24.572C12.6729 18.9583 17.741 14.411 23.3038 14.411H63.3119M63.3119 10.5536H23.3038C15.7569 10.5536 9.1152 16.5016 8.19421 24.0998L7.23637 31.9738L4.56285 53.9459L0.110496 90.4935C-0.357896 94.3403 0.710459 97.9643 3.11031 100.707C5.5049 103.435 9.02047 105 12.7623 105C15.1675 105 17.6199 104.347 19.8566 103.111L61.6014 80.0619L67.2906 76.9208L61.8067 73.4241L33.8558 55.5907C32.2454 54.5614 31.4401 52.6831 31.698 50.5554L33.0664 39.3226C33.2716 37.6194 34.7136 36.3353 36.4135 36.3353H43.2026C43.6183 36.3353 43.9552 36.468 44.1709 36.7121C44.3972 36.9721 44.4867 37.3435 44.4341 37.7892L44.1709 39.954C43.8499 42.5805 44.6235 45.1751 46.2971 47.0799C47.9602 48.9742 50.3969 50.0566 52.9914 50.0566H59.4437C64.5539 50.0566 69.0483 46.0294 69.6746 40.8932L72.1376 20.6668C72.4587 18.0403 71.685 15.4457 70.0115 13.5409C68.3484 11.6466 65.9117 10.5642 63.3119 10.5642V10.5536Z" fill="black"/>
<path d="M97.636 10.1609C98.3202 4.54722 94.3625 0 88.7944 0H44.0814C38.5133 0 33.4505 4.54722 32.7663 10.1609L32.2505 14.411H63.317C66.48 14.411 68.7325 17.0004 68.3431 20.1892L65.88 40.4156C65.4906 43.6045 62.6118 46.1938 59.4436 46.1938H52.9914C49.8284 46.1938 47.5759 43.6045 47.9654 40.4156L48.2285 38.2508C48.618 35.0619 46.3655 32.4726 43.2025 32.4726H36.4134C32.7768 32.4726 29.7139 35.2052 29.2718 38.8451L27.9034 50.0778C27.4666 53.6806 28.9507 57.018 31.8137 58.838L59.7646 76.6714L73.3059 85.3095C79.5424 89.289 88.5997 84.4022 89.5575 76.5493L93.2626 46.1249L97.1781 13.9813L97.6412 10.1609H97.636Z" fill="black"/>
</g>
<defs>
<clipPath id="clip0_7_21">
<rect width="342" height="105" fill="white"/>
</clipPath>
</defs>
</svg>
